<?xml version="1.0" encoding="UTF-8"?>
<svg xmlns="http://www.w3.org/2000/svg" xmlns:xlink="http://www.w3.org/1999/xlink" width="75pt" height="58pt" viewBox="0 0 75 58" version="1.1">
<g id="surface1">
<path style=" stroke:none;fill-rule:evenodd;fill:rgb(13.699341%,12.199402%,12.5%);fill-opacity:1;" d="M 30.300781 28.363281 C 30.804688 28.027344 32.746094 28.175781 32.699219 30.09375 C 32.65625 31.996094 30.804688 32.066406 30.296875 31.730469 C 30.261719 31.253906 30.246094 28.785156 30.300781 28.363281 Z M 28.507813 26.894531 C 28.425781 27.144531 28.550781 29.484375 28.554688 29.953125 C 28.566406 30.984375 28.480469 32.007813 28.476563 33.035156 C 28.476563 33.230469 28.464844 33.269531 28.664063 33.285156 C 29.148438 33.320313 30.90625 33.304688 31.355469 33.300781 C 33.257813 33.261719 34.394531 31.898438 34.460938 30.164063 C 34.496094 29.246094 34.136719 28.3125 33.667969 27.816406 C 33.074219 27.179688 32.445313 26.933594 31.492188 26.851563 C 31.019531 26.8125 28.820313 26.742188 28.507813 26.894531 "/>
<path style=" stroke:none;fill-rule:evenodd;fill:rgb(13.699341%,12.199402%,12.5%);fill-opacity:1;" d="M 43.253906 29.042969 C 43.214844 29.242188 43.328125 30.15625 43.339844 30.449219 L 43.339844 32.746094 C 43.339844 33.25 43.292969 33.265625 43.554688 33.289063 C 43.835938 33.308594 44.726563 33.351563 44.941406 33.246094 C 45.09375 33.085938 44.847656 30.714844 45.03125 30.433594 C 45.128906 30.285156 45.386719 30.101563 45.648438 30.097656 C 46.289063 30.085938 46.164063 30.917969 46.175781 31.476563 C 46.179688 31.863281 46.078125 33.046875 46.222656 33.269531 C 46.472656 33.300781 47.582031 33.300781 47.785156 33.257813 C 47.890625 32.78125 47.671875 30.875 47.855469 30.5 C 47.929688 30.347656 48.183594 30.125 48.410156 30.097656 C 49.503906 29.984375 48.742188 32.4375 49.03125 33.257813 C 49.199219 33.296875 50.25 33.34375 50.480469 33.292969 C 50.625 33.253906 50.539063 33.289063 50.605469 33.199219 C 50.683594 33.039063 50.609375 31.515625 50.613281 31.191406 C 50.621094 30.65625 50.722656 29.695313 50.488281 29.292969 C 49.917969 28.339844 48.179688 28.707031 47.75 29.472656 C 47.6875 29.417969 47.726563 29.464844 47.671875 29.382813 C 47.644531 29.339844 47.644531 29.328125 47.625 29.285156 C 47.398438 28.859375 46.84375 28.6875 46.355469 28.714844 C 45.839844 28.742188 45.578125 28.933594 45.234375 29.1875 C 45.015625 29.34375 45.003906 29.410156 44.941406 29.34375 C 44.863281 29.199219 44.921875 28.921875 44.851563 28.773438 C 44.628906 28.703125 44.308594 28.863281 44.074219 28.902344 C 43.792969 28.953125 43.492188 28.933594 43.253906 29.042969 "/>
<path style=" stroke:none;fill-rule:evenodd;fill:rgb(13.699341%,12.199402%,12.5%);fill-opacity:1;" d="M 63.953125 30.089844 C 64.457031 29.980469 64.878906 30.375 64.960938 30.773438 C 65.074219 31.324219 64.734375 31.769531 64.339844 31.875 C 63.210938 32.175781 62.878906 30.324219 63.953125 30.089844 Z M 66.664063 33.273438 C 66.691406 33.066406 66.625 32.667969 66.617188 32.429688 L 66.574219 29.953125 C 66.574219 29.394531 66.578125 28.828125 66.609375 28.269531 C 66.628906 27.839844 66.730469 27.027344 66.703125 26.65625 L 65.386719 26.773438 C 65.316406 26.78125 65.242188 26.78125 65.167969 26.789063 C 65.125 26.792969 65.089844 26.796875 65.042969 26.808594 C 64.949219 26.832031 65.003906 26.816406 64.964844 26.84375 C 64.832031 27.054688 64.988281 28.738281 64.945313 29.15625 C 64.828125 29.167969 64.820313 29.097656 64.734375 29.019531 C 64.15625 28.503906 63.160156 28.621094 62.632813 28.96875 C 61.183594 29.921875 61.359375 32.371094 62.714844 33.085938 C 64.0625 33.796875 64.941406 32.851563 65.082031 32.808594 C 65.09375 32.929688 65.078125 33.152344 65.152344 33.234375 C 65.296875 33.390625 66.394531 33.316406 66.664063 33.273438 "/>
<path style=" stroke:none;fill-rule:evenodd;fill:rgb(13.699341%,12.199402%,12.5%);fill-opacity:1;" d="M 39.824219 30.121094 C 41.089844 29.90625 41.222656 31.714844 40.195313 31.890625 C 38.960938 32.105469 38.722656 30.308594 39.824219 30.121094 Z M 40.9375 33.3125 C 41.132813 33.328125 42.253906 33.324219 42.363281 33.253906 C 42.523438 33.152344 42.40625 32.113281 42.398438 31.863281 C 42.371094 31.367188 42.355469 30.875 42.382813 30.378906 C 42.402344 30.027344 42.53125 29.347656 42.515625 29.089844 C 42.351563 28.976563 41.28125 28.726563 41.128906 28.828125 C 40.992188 28.945313 41.054688 29.085938 40.933594 29.230469 C 40.679688 28.996094 40.460938 28.757813 39.914063 28.714844 C 38.597656 28.613281 37.578125 29.484375 37.546875 31.019531 C 37.519531 32.5 38.667969 33.582031 39.828125 33.363281 C 40.386719 33.257813 40.542969 32.9375 40.796875 32.796875 C 40.867188 32.949219 40.859375 33.144531 40.9375 33.3125 "/>
<path style=" stroke:none;fill-rule:evenodd;fill:rgb(13.699341%,12.199402%,12.5%);fill-opacity:1;" d="M 58.066406 28.800781 C 57.96875 28.71875 57.792969 28.78125 57.628906 28.8125 C 57.222656 28.890625 56.425781 28.929688 56.386719 29.082031 C 56.386719 29.089844 56.507813 29.824219 56.519531 29.9375 C 56.605469 30.769531 56.546875 32.132813 56.550781 33 C 56.554688 33.195313 56.582031 33.265625 56.777344 33.289063 L 57.78125 33.300781 C 58.113281 33.296875 58.101563 33.308594 58.171875 33.191406 C 58.335938 32.917969 58.058594 30.738281 58.28125 30.453125 C 58.390625 30.316406 58.628906 30.136719 58.882813 30.132813 C 59.554688 30.121094 59.425781 30.878906 59.4375 31.476563 C 59.445313 31.804688 59.34375 33.066406 59.480469 33.246094 C 59.710938 33.359375 60.804688 33.320313 61.046875 33.261719 C 61.125 32.902344 61.0625 31.691406 61.0625 31.226563 C 61.058594 30.726563 61.140625 29.71875 60.9375 29.347656 C 60.722656 28.972656 60.199219 28.679688 59.558594 28.734375 C 59.003906 28.78125 58.566406 29.164063 58.171875 29.355469 L 58.066406 28.800781 "/>
<path style=" stroke:none;fill-rule:evenodd;fill:rgb(13.699341%,12.199402%,12.5%);fill-opacity:1;" d="M 53.441406 30.121094 C 53.953125 29.984375 54.332031 30.398438 54.410156 30.8125 C 54.503906 31.34375 54.214844 31.820313 53.804688 31.917969 C 52.71875 32.175781 52.402344 30.394531 53.441406 30.121094 Z M 55.914063 31.367188 C 56.101563 29.925781 55.242188 28.859375 53.976563 28.695313 C 52.511719 28.507813 51.492188 29.355469 51.320313 30.644531 C 50.875 33.933594 55.53125 34.359375 55.914063 31.367188 "/>
<path style=" stroke:none;fill-rule:evenodd;fill:rgb(13.699341%,12.199402%,12.5%);fill-opacity:1;" d="M 35.234375 33.210938 L 35.382813 33.28125 C 35.53125 33.3125 36.738281 33.339844 36.839844 33.246094 C 36.929688 33.074219 36.851563 31.425781 36.851563 31.085938 L 36.949219 28.929688 C 36.695313 28.886719 36.421875 28.933594 36.167969 28.945313 C 34.839844 29 35.152344 28.4375 35.226563 30.113281 L 35.234375 33.210938 "/>
<path style=" stroke:none;fill-rule:evenodd;fill:rgb(13.699341%,12.199402%,12.5%);fill-opacity:1;" d="M 35.875 26.964844 C 34.773438 27.175781 34.9375 28.691406 36.269531 28.535156 C 36.757813 28.480469 37.082031 28.136719 36.945313 27.554688 C 36.851563 27.167969 36.390625 26.871094 35.875 26.964844 "/>
<path style=" stroke:none;fill-rule:nonzero;fill:rgb(65.499878%,81.199646%,28.999329%);fill-opacity:1;" d="M 49.519531 37.464844 L 49.519531 36.351563 L 48.550781 34.820313 L 49.175781 34.820313 L 49.800781 35.867188 L 50.410156 34.820313 L 51.023438 34.820313 L 50.054688 36.355469 L 50.054688 37.464844 Z M 50.894531 36.480469 C 50.894531 36.3125 50.933594 36.148438 51.015625 35.992188 C 51.097656 35.835938 51.214844 35.714844 51.367188 35.628906 C 51.519531 35.546875 51.691406 35.503906 51.878906 35.503906 C 52.167969 35.503906 52.402344 35.601563 52.589844 35.789063 C 52.773438 35.976563 52.867188 36.214844 52.867188 36.503906 C 52.867188 36.792969 52.773438 37.03125 52.585938 37.222656 C 52.402344 37.414063 52.167969 37.511719 51.882813 37.511719 C 51.707031 37.511719 51.539063 37.472656 51.382813 37.390625 C 51.21875 37.3125 51.097656 37.195313 51.015625 37.039063 C 50.933594 36.886719 50.894531 36.699219 50.894531 36.480469 Z M 51.414063 36.507813 C 51.414063 36.695313 51.460938 36.84375 51.546875 36.945313 C 51.636719 37.046875 51.75 37.097656 51.878906 37.097656 C 52.015625 37.097656 52.125 37.046875 52.214844 36.945313 C 52.300781 36.84375 52.347656 36.695313 52.347656 36.503906 C 52.347656 36.316406 52.300781 36.171875 52.214844 36.070313 C 52.125 35.96875 52.015625 35.917969 51.878906 35.917969 C 51.75 35.917969 51.636719 35.96875 51.546875 36.070313 C 51.460938 36.171875 51.414063 36.320313 51.414063 36.507813 Z M 54.53125 37.464844 L 54.53125 37.175781 C 54.460938 37.277344 54.371094 37.359375 54.257813 37.417969 C 54.144531 37.480469 54.023438 37.511719 53.898438 37.511719 C 53.769531 37.511719 53.652344 37.480469 53.550781 37.425781 C 53.445313 37.367188 53.371094 37.289063 53.328125 37.183594 C 53.28125 37.082031 53.257813 36.945313 53.257813 36.761719 L 53.257813 35.546875 L 53.765625 35.546875 L 53.765625 36.429688 C 53.765625 36.699219 53.773438 36.863281 53.792969 36.921875 C 53.8125 36.988281 53.84375 37.03125 53.894531 37.070313 C 53.941406 37.105469 54.003906 37.121094 54.082031 37.121094 C 54.167969 37.121094 54.246094 37.101563 54.3125 37.050781 C 54.382813 37.003906 54.429688 36.945313 54.457031 36.875 C 54.484375 36.804688 54.492188 36.628906 54.492188 36.355469 L 54.492188 35.546875 L 55 35.546875 L 55 37.464844 Z M 56.003906 37.464844 L 55.496094 37.464844 L 55.496094 35.546875 L 55.96875 35.546875 L 55.96875 35.816406 C 56.050781 35.6875 56.121094 35.605469 56.183594 35.566406 C 56.25 35.527344 56.320313 35.503906 56.402344 35.503906 C 56.519531 35.503906 56.628906 35.539063 56.738281 35.601563 L 56.582031 36.042969 C 56.5 35.988281 56.417969 35.957031 56.34375 35.957031 C 56.273438 35.957031 56.210938 35.980469 56.164063 36.019531 C 56.113281 36.058594 56.074219 36.128906 56.046875 36.230469 C 56.019531 36.332031 56.003906 36.546875 56.003906 36.871094 Z M 57.988281 34.820313 L 59.042969 34.820313 C 59.257813 34.820313 59.410156 34.828125 59.511719 34.84375 C 59.613281 34.863281 59.707031 34.898438 59.789063 34.953125 C 59.867188 35.011719 59.9375 35.082031 59.992188 35.171875 C 60.046875 35.265625 60.074219 35.367188 60.074219 35.480469 C 60.074219 35.605469 60.039063 35.71875 59.972656 35.824219 C 59.90625 35.925781 59.816406 36 59.703125 36.054688 C 59.863281 36.101563 59.984375 36.179688 60.074219 36.292969 C 60.160156 36.40625 60.203125 36.542969 60.203125 36.695313 C 60.203125 36.8125 60.171875 36.929688 60.117188 37.042969 C 60.0625 37.15625 59.984375 37.25 59.890625 37.320313 C 59.792969 37.386719 59.671875 37.429688 59.53125 37.441406 C 59.445313 37.453125 59.226563 37.460938 58.886719 37.464844 L 57.988281 37.464844 Z M 58.519531 35.257813 L 58.519531 35.867188 L 58.871094 35.867188 C 59.078125 35.867188 59.207031 35.867188 59.257813 35.859375 C 59.347656 35.847656 59.421875 35.816406 59.476563 35.761719 C 59.527344 35.710938 59.554688 35.644531 59.554688 35.558594 C 59.554688 35.472656 59.527344 35.410156 59.484375 35.359375 C 59.441406 35.308594 59.375 35.277344 59.285156 35.269531 C 59.230469 35.261719 59.078125 35.257813 58.828125 35.257813 Z M 58.519531 36.308594 L 58.519531 37.015625 L 59.015625 37.015625 C 59.207031 37.015625 59.332031 37.007813 59.382813 37 C 59.460938 36.984375 59.527344 36.949219 59.574219 36.894531 C 59.628906 36.839844 59.648438 36.765625 59.648438 36.667969 C 59.648438 36.585938 59.632813 36.519531 59.59375 36.46875 C 59.554688 36.410156 59.5 36.367188 59.425781 36.347656 C 59.351563 36.320313 59.195313 36.308594 58.953125 36.308594 Z M 61.027344 36.136719 L 60.570313 36.054688 C 60.617188 35.867188 60.710938 35.730469 60.832031 35.640625 C 60.960938 35.550781 61.148438 35.503906 61.398438 35.503906 C 61.621094 35.503906 61.792969 35.53125 61.902344 35.585938 C 62.015625 35.640625 62.09375 35.707031 62.136719 35.789063 C 62.179688 35.871094 62.203125 36.023438 62.203125 36.242188 L 62.195313 36.835938 C 62.195313 37 62.207031 37.125 62.21875 37.207031 C 62.238281 37.285156 62.265625 37.371094 62.3125 37.464844 L 61.808594 37.464844 C 61.796875 37.429688 61.777344 37.378906 61.761719 37.316406 C 61.753906 37.285156 61.746094 37.261719 61.742188 37.253906 C 61.65625 37.339844 61.566406 37.40625 61.464844 37.445313 C 61.363281 37.488281 61.261719 37.511719 61.152344 37.511719 C 60.953125 37.511719 60.796875 37.457031 60.683594 37.351563 C 60.570313 37.246094 60.515625 37.105469 60.515625 36.945313 C 60.515625 36.835938 60.539063 36.738281 60.59375 36.65625 C 60.644531 36.570313 60.71875 36.507813 60.808594 36.460938 C 60.90625 36.414063 61.039063 36.375 61.210938 36.34375 C 61.449219 36.296875 61.613281 36.253906 61.703125 36.214844 L 61.703125 36.167969 C 61.703125 36.066406 61.683594 35.996094 61.632813 35.953125 C 61.582031 35.914063 61.496094 35.894531 61.359375 35.894531 C 61.269531 35.894531 61.199219 35.910156 61.148438 35.949219 C 61.097656 35.984375 61.058594 36.046875 61.027344 36.136719 Z M 61.703125 36.546875 C 61.640625 36.570313 61.539063 36.59375 61.394531 36.621094 C 61.253906 36.65625 61.164063 36.683594 61.121094 36.710938 C 61.054688 36.761719 61.019531 36.816406 61.019531 36.890625 C 61.019531 36.960938 61.050781 37.023438 61.097656 37.074219 C 61.15625 37.128906 61.21875 37.152344 61.304688 37.152344 C 61.394531 37.152344 61.480469 37.121094 61.566406 37.0625 C 61.625 37.015625 61.664063 36.960938 61.6875 36.894531 C 61.695313 36.851563 61.703125 36.769531 61.703125 36.648438 Z M 64.445313 37.464844 L 63.9375 37.464844 L 63.9375 36.484375 C 63.9375 36.28125 63.929688 36.144531 63.90625 36.085938 C 63.886719 36.023438 63.851563 35.976563 63.800781 35.945313 C 63.75 35.910156 63.695313 35.894531 63.625 35.894531 C 63.53125 35.894531 63.453125 35.914063 63.382813 35.964844 C 63.3125 36.015625 63.265625 36.074219 63.242188 36.15625 C 63.214844 36.238281 63.199219 36.382813 63.199219 36.59375 L 63.199219 37.464844 L 62.695313 37.464844 L 62.695313 35.546875 L 63.164063 35.546875 L 63.164063 35.828125 C 63.332031 35.613281 63.542969 35.503906 63.796875 35.503906 C 63.910156 35.503906 64.011719 35.527344 64.105469 35.566406 C 64.199219 35.609375 64.269531 35.65625 64.316406 35.71875 C 64.367188 35.78125 64.398438 35.851563 64.414063 35.933594 C 64.4375 36.011719 64.445313 36.125 64.445313 36.273438 Z M 64.9375 37.464844 L 64.9375 34.820313 L 65.445313 34.820313 L 65.445313 36.21875 L 66.035156 35.546875 L 66.660156 35.546875 L 66.007813 36.246094 L 66.710938 37.464844 L 66.164063 37.464844 L 65.679688 36.597656 L 65.445313 36.847656 L 65.445313 37.464844 L 64.9375 37.464844 "/>
<path style=" stroke:none;fill-rule:evenodd;fill:rgb(92.89856%,56.098938%,22.399902%);fill-opacity:1;" d="M 8.875 30.117188 L 14.492188 30.117188 L 17.660156 26.835938 L 12.039063 26.835938 L 8.875 30.117188 "/>
<path style=" stroke:none;fill-rule:evenodd;fill:rgb(92.89856%,10.998535%,14.099121%);fill-opacity:1;" d="M 8.875 30.117188 L 14.492188 30.117188 L 17.949219 33.683594 L 17.953125 39.308594 L 8.875 30.117188 "/>
<path style=" stroke:none;fill-rule:evenodd;fill:rgb(3.09906%,61.599731%,69.398499%);fill-opacity:1;" d="M 27.027344 30.117188 L 21.410156 30.117188 L 17.957031 33.683594 L 17.953125 39.308594 L 27.027344 30.117188 "/>
<path style=" stroke:none;fill-rule:evenodd;fill:rgb(65.499878%,81.199646%,28.999329%);fill-opacity:1;" d="M 27.027344 30.117188 L 21.410156 30.117188 L 15.5625 24.15625 L 15.625 18.597656 L 27.027344 30.117188 "/>
</g>
</svg>
