<?xml version="1.0" standalone="no"?>
<!DOCTYPE svg PUBLIC "-//W3C//DTD SVG 20010904//EN"
 "http://www.w3.org/TR/2001/REC-SVG-20010904/DTD/svg10.dtd">
<svg version="1.0" xmlns="http://www.w3.org/2000/svg"
 width="1280.000000pt" height="738.000000pt" viewBox="0 0 1280.000000 738.000000"
 preserveAspectRatio="xMidYMid meet">
<metadata>
Created by potrace 1.16, written by Peter Selinger 2001-2019
</metadata>
<g transform="translate(0.000000,738.000000) scale(0.100000,-0.100000)"
fill="#000000" stroke="none">
<path d="M796 2410 c-189 -22 -370 -94 -478 -190 -74 -66 -140 -166 -174 -265
-39 -114 -45 -286 -15 -405 35 -140 110 -241 241 -326 97 -62 233 -115 455
-174 239 -64 304 -85 385 -125 135 -68 186 -152 178 -294 -13 -230 -198 -371
-485 -371 -190 0 -343 54 -457 160 -85 80 -113 143 -129 290 l-11 110 -93 0
-93 0 0 -280 0 -279 63 -35 c80 -45 243 -99 389 -128 148 -30 468 -33 588 -6
312 69 512 243 581 505 32 117 32 351 2 448 -48 154 -144 264 -287 333 -110
54 -230 91 -493 155 -258 63 -368 109 -427 179 -46 53 -59 101 -54 204 3 74 6
86 38 133 44 65 130 124 224 154 59 18 94 22 206 22 153 0 210 -13 323 -72
117 -62 159 -134 173 -295 l7 -78 83 0 84 0 0 250 0 250 -56 25 c-86 38 -200
71 -304 89 -117 20 -358 28 -464 16z"/>
<path d="M4990 2085 l0 -295 -220 0 -220 0 0 -59 0 -58 71 -5 c119 -9 110 43
107 -570 l-3 -526 -339 609 -340 609 -553 0 -553 0 0 -59 0 -59 71 -4 c120 -7
111 44 106 -597 -4 -582 -4 -587 -55 -687 -59 -116 -186 -175 -344 -159 -149
15 -240 93 -272 234 -24 103 -24 1135 -1 1168 17 24 71 43 123 43 l32 0 0 60
0 60 -380 0 -380 0 0 -60 0 -60 33 0 c46 0 103 -18 118 -37 11 -13 15 -124 20
-562 7 -600 9 -622 70 -748 55 -110 160 -186 314 -229 90 -24 377 -31 474 -10
153 32 276 118 335 234 73 143 86 279 86 879 l0 462 54 6 c29 4 99 5 156 3 93
-3 103 -5 121 -27 18 -22 19 -48 19 -682 0 -470 -3 -665 -11 -683 -14 -30 -55
-46 -120 -46 l-49 0 0 -60 0 -60 265 0 265 0 0 60 0 60 -55 0 c-60 0 -109 19
-119 45 -3 9 -6 256 -6 548 l0 532 347 -623 347 -622 203 0 203 0 0 751 c0
470 4 757 10 769 15 27 64 40 155 40 l82 0 6 163 c7 189 21 251 72 302 52 51
112 65 282 65 l143 0 -1 -927 c0 -692 -3 -937 -12 -963 -18 -51 -63 -73 -164
-78 l-83 -5 0 -58 0 -59 500 0 500 0 0 59 0 58 -82 5 c-99 5 -144 25 -164 73
-12 29 -14 183 -14 966 l0 931 163 -4 c151 -3 165 -5 207 -28 48 -27 83 -72
101 -129 6 -20 14 -111 16 -203 l5 -168 108 0 c113 0 163 -11 177 -38 13 -27
16 -1274 3 -1322 -13 -50 -42 -70 -114 -77 l-56 -6 0 -58 0 -59 390 0 390 0 0
60 0 60 -40 0 c-49 0 -117 26 -130 51 -6 11 -10 276 -10 694 l0 677 148 -4
c157 -5 193 -14 245 -62 53 -49 72 -109 72 -226 0 -166 -44 -257 -149 -306
-43 -20 -67 -24 -148 -24 -67 0 -98 -4 -98 -11 0 -27 379 -777 410 -812 69
-79 145 -97 413 -97 l177 0 0 60 c0 59 -1 60 -27 60 -35 0 -103 31 -124 56
-14 17 -369 631 -369 639 0 2 23 11 50 20 116 39 214 130 261 245 33 80 33
249 -1 335 -42 109 -148 191 -296 229 -111 29 -243 36 -681 36 l-433 0 0 295
0 295 -905 0 -905 0 0 -295z"/>
<path d="M10505 1829 c-154 -22 -272 -77 -362 -167 -187 -187 -192 -544 -11
-707 92 -83 180 -119 443 -184 268 -67 338 -98 373 -169 69 -136 0 -293 -154
-352 -81 -31 -232 -38 -328 -16 -180 43 -296 160 -296 302 0 17 -3 46 -6 63
l-6 31 -79 0 -79 0 0 -208 0 -209 48 -25 c59 -32 181 -72 292 -95 120 -25 398
-25 490 0 216 59 353 179 416 364 24 67 27 94 27 198 1 99 -3 131 -22 183 -71
204 -185 275 -571 357 -320 68 -390 113 -390 250 0 96 37 150 135 198 162 80
405 55 530 -54 39 -35 50 -67 60 -181 l7 -78 79 0 79 0 0 201 0 200 -52 23
c-153 67 -438 102 -623 75z"/>
<path d="M8320 1730 l0 -60 34 0 c40 0 95 -17 116 -37 13 -12 16 -93 21 -561
7 -594 9 -620 66 -740 52 -111 169 -197 323 -239 52 -14 105 -18 265 -18 193
0 203 1 279 28 101 36 178 87 226 151 49 66 65 98 91 187 22 72 23 90 26 614
2 297 6 550 8 563 7 30 59 52 125 52 l50 0 0 60 0 60 -265 0 -265 0 0 -60 0
-60 49 0 c76 0 109 -16 122 -58 7 -26 9 -198 6 -557 -4 -548 -6 -577 -53 -668
-23 -44 -84 -107 -123 -127 -87 -43 -215 -49 -325 -13 -65 21 -127 83 -157
159 l-24 59 0 579 0 579 26 19 c14 11 50 22 82 25 l57 6 0 58 0 59 -380 0
-380 0 0 -60z"/>
<path d="M11290 1560 l0 -230 79 0 78 0 6 93 c6 111 24 159 69 187 28 17 50
20 146 20 l112 0 0 -663 c0 -735 4 -694 -66 -723 -18 -8 -58 -14 -89 -14 l-55
0 0 -60 0 -60 420 0 420 0 0 60 0 60 -52 1 c-79 0 -120 18 -140 59 -17 32 -18
86 -18 688 l0 652 116 0 c100 0 121 -3 149 -20 43 -27 61 -74 70 -187 l7 -93
74 0 74 0 0 230 0 230 -700 0 -700 0 0 -230z"/>
</g>
</svg>
