<?xml version="1.0" standalone="no"?>
<!DOCTYPE svg PUBLIC "-//W3C//DTD SVG 20010904//EN"
 "http://www.w3.org/TR/2001/REC-SVG-20010904/DTD/svg10.dtd">
<svg version="1.0" xmlns="http://www.w3.org/2000/svg"
 width="283.000000pt" height="178.000000pt" viewBox="0 0 283.000000 178.000000"
 preserveAspectRatio="xMidYMid meet">
<metadata>
Created by potrace 1.16, written by Peter Selinger 2001-2019
</metadata>
<g transform="translate(0.000000,178.000000) scale(0.100000,-0.100000)"
fill="#000000" stroke="none">
<path d="M290 680 c0 -82 3 -100 15 -100 10 0 15 10 15 29 0 27 4 30 43 36 53
9 77 30 77 67 0 46 -31 68 -95 68 l-55 0 0 -100z"/>
<path d="M1730 680 l0 -100 63 0 c49 0 68 4 80 18 22 24 21 41 -3 67 -18 20
-19 23 -5 35 20 17 19 36 -5 60 -15 15 -33 20 -75 20 l-55 0 0 -100z"/>
<path d="M480 670 c0 -73 3 -90 15 -90 10 0 15 10 15 30 0 23 5 30 19 30 11 0
29 -13 41 -30 12 -16 28 -30 36 -30 19 0 18 7 -5 39 -19 27 -19 27 0 39 13 8
19 23 19 47 0 43 -20 55 -89 55 l-51 0 0 -90z"/>
<path d="M685 735 c-34 -33 -34 -93 -1 -132 20 -23 32 -28 67 -27 56 2 89 37
89 95 0 55 -34 89 -90 89 -30 0 -47 -6 -65 -25z"/>
<path d="M1160 670 l0 -90 55 0 c48 0 60 4 80 26 40 43 28 120 -22 143 -13 6
-44 11 -68 11 l-45 0 0 -90z"/>
<path d="M1975 725 c-9 -19 -26 -60 -40 -90 -22 -51 -23 -55 -6 -55 10 0 21 9
24 20 4 16 14 20 52 20 38 0 48 -4 52 -20 3 -11 13 -20 23 -20 16 0 14 10 -19
88 -44 99 -63 113 -86 57z"/>
<path d="M2130 670 c0 -72 3 -90 15 -90 10 0 15 16 17 63 l3 62 48 -62 c67
-88 77 -84 77 27 0 72 -3 90 -15 90 -10 0 -15 -16 -17 -61 l-3 -61 -47 61
c-68 86 -78 82 -78 -29z"/>
</g>
</svg>
