<?xml version="1.0" standalone="no"?>
<!DOCTYPE svg PUBLIC "-//W3C//DTD SVG 20010904//EN"
 "http://www.w3.org/TR/2001/REC-SVG-20010904/DTD/svg10.dtd">
<svg version="1.0" xmlns="http://www.w3.org/2000/svg"
 width="500.000000pt" height="500.000000pt" viewBox="0 0 500.000000 500.000000"
 preserveAspectRatio="xMidYMid meet">

<g transform="translate(0.000000,500.000000) scale(0.100000,-0.100000)"
fill="#000000" stroke="none">
<path d="M2411 3800 c-62 -15 -76 -40 -76 -131 0 -76 2 -82 28 -105 25 -21 38
-24 107 -24 69 0 82 3 106 24 24 20 28 32 32 87 4 73 -7 112 -40 133 -29 19
-112 28 -157 16z"/>
<path d="M3038 3580 c-26 -3 -50 -9 -54 -13 -4 -4 -9 -65 -12 -136 l-5 -129
-79 -4 c-88 -4 -94 -8 -104 -74 -4 -26 0 -53 10 -77 l15 -37 80 0 81 0 1 -77
c11 -768 15 -888 32 -928 46 -103 98 -149 217 -191 69 -24 85 -25 200 -21 69
3 133 8 143 12 14 6 17 20 17 86 l0 79 -91 0 c-169 0 -228 33 -268 151 -20 60
-21 81 -21 476 l0 413 169 0 c201 0 201 0 201 93 0 34 -5 69 -10 77 -7 12 -42
16 -185 18 l-175 4 0 121 c0 67 -4 128 -9 136 -11 18 -90 28 -153 21z"/>
<path d="M2390 3272 l-25 -8 -3 -656 c-2 -601 -1 -657 14 -669 18 -15 155 -20
187 -7 16 7 17 48 17 660 0 387 -4 659 -10 668 -10 16 -136 25 -180 12z"/>
<path d="M3794 3270 c-12 -5 -25 -13 -28 -18 -6 -11 67 -217 262 -737 174
-464 211 -558 228 -576 13 -14 -2 -51 -141 -344 -85 -180 -155 -336 -155 -345
0 -28 60 -43 138 -35 36 4 72 9 79 12 18 7 46 64 177 356 129 288 175 402 406
1012 245 648 242 639 225 661 -11 16 -27 19 -104 19 -49 0 -95 -5 -100 -10 -6
-6 -95 -244 -199 -530 -104 -285 -193 -520 -198 -522 -6 -2 -49 108 -98 244
-263 740 -288 804 -313 814 -30 11 -151 11 -179 -1z"/>
<path d="M10 3236 c0 -2 5 -49 10 -104 8 -76 7 -169 -5 -378 -16 -293 -14
-395 12 -509 32 -142 92 -238 187 -300 78 -51 150 -68 271 -63 96 3 107 6 186
45 47 23 117 70 160 107 l77 66 3 -79 c5 -103 12 -111 103 -111 114 0 107 -24
104 329 l-3 303 -80 -103 c-166 -214 -295 -314 -454 -354 -96 -25 -183 -2
-247 67 -80 84 -94 158 -104 533 -6 264 -10 308 -28 365 -24 75 -57 123 -109
163 -30 22 -83 37 -83 23z"/>
<path d="M2030 1527 c0 -118 3 -217 7 -220 3 -4 14 0 24 9 13 12 22 13 38 5
29 -16 97 -13 132 5 57 29 86 136 55 207 -24 57 -61 82 -119 82 -29 0 -59 -2
-67 -5 -12 -4 -16 8 -18 63 -3 64 -4 67 -27 67 l-25 0 0 -213z m170 38 c21
-11 32 -27 40 -56 28 -104 -35 -187 -120 -158 -27 10 -28 11 -32 107 -4 80 -2
99 10 110 21 16 67 15 102 -3z"/>
<path d="M3580 1525 l0 -215 25 0 c24 0 25 3 25 53 0 43 5 58 23 75 13 12 26
22 29 22 3 0 27 -34 53 -75 38 -61 51 -75 71 -75 17 0 23 4 18 13 -4 6 -29 47
-56 89 -26 43 -48 83 -48 89 0 6 18 33 40 59 22 26 40 51 40 54 0 3 -10 6 -22
6 -16 0 -39 -20 -78 -69 -30 -39 -58 -70 -62 -70 -5 -1 -8 58 -8 129 l0 130
-25 0 -25 0 0 -215z"/>
<path d="M2588 1608 c-23 -8 -26 -13 -18 -28 9 -16 15 -18 36 -10 60 23 124
-2 124 -49 0 -16 -10 -19 -60 -23 -51 -4 -66 -9 -91 -35 -39 -39 -42 -92 -8
-129 27 -29 96 -33 135 -8 23 15 26 15 43 0 25 -22 55 -22 46 2 -4 9 -11 66
-14 126 -7 106 -8 109 -39 137 -26 24 -41 29 -80 28 -26 0 -59 -5 -74 -11z
m140 -181 c4 -46 -16 -73 -59 -82 -39 -9 -79 17 -79 49 0 37 54 78 99 74 34
-3 36 -5 39 -41z"/>
<path d="M3067 1613 c-4 -3 -7 -73 -7 -155 l0 -148 25 0 25 0 0 115 c0 105 2
116 22 135 22 20 72 27 96 11 20 -12 31 -76 32 -173 0 -81 2 -88 20 -88 19 0
20 7 20 120 0 67 -5 130 -11 144 -22 48 -116 60 -159 21 -17 -16 -19 -15 -30
4 -11 22 -22 26 -33 14z"/>
</g>
</svg>
